<svg version="1.1" id="Layer_1" xmlns="http://www.w3.org/2000/svg" xmlns:xlink="http://www.w3.org/1999/xlink" x="0px" y="0px"
	 width="100%" viewBox="0 0 512 512" enable-background="new 0 0 512 512" xml:space="preserve">
	 <circle cx="256" cy="256" r="256" fill="#191919"/>
<path fill="#00BAD2" opacity="1.000000" stroke="none" 
	d="
M400.288300,272.000244 
	C400.285461,300.328827 400.423065,328.158325 400.235291,355.985657 
	C400.085114,378.234955 386.150360,395.261932 364.947388,399.418762 
	C361.387939,400.116608 357.659882,400.150482 354.009186,400.156128 
	C320.181732,400.208466 286.354126,400.208038 252.526596,400.180878 
	C225.462891,400.159149 207.658463,383.163116 206.697998,356.149078 
	C206.562317,352.332886 204.957596,351.741211 201.801575,350.948364 
	C195.557114,349.379730 189.127625,347.787140 183.447128,344.887177 
	C170.348068,338.199921 163.890167,326.832001 162.984253,312.254822 
	C162.852020,310.127106 162.965897,307.984100 162.965897,305.638153 
	C157.888855,305.140045 153.234711,305.061798 148.739182,304.177338 
	C128.475906,300.190643 114.054848,283.619354 113.859367,263.064819 
	C113.518684,227.241470 113.467499,191.408966 113.882561,155.587112 
	C114.148300,132.651627 132.260147,114.284729 155.314850,113.938690 
	C191.798935,113.391083 228.301849,113.394814 264.787170,113.882843 
	C288.711060,114.202850 305.925964,131.614441 307.234589,155.595428 
	C307.440369,159.366425 308.438049,160.624176 312.354797,160.863739 
	C340.036255,162.556992 354.497437,177.380142 356.144684,205.337250 
	C356.201843,206.307602 356.370270,207.271423 356.403931,207.550613 
	C363.076874,209.448090 369.609955,210.427124 375.348785,213.107040 
	C390.820435,220.331985 399.289368,232.807404 400.139801,250.008316 
	C400.493225,257.157257 400.256592,264.335358 400.288300,272.000244 
M222.879288,322.499939 
	C222.880722,333.661438 222.822220,344.823334 222.897598,355.984344 
	C223.011566,372.859467 234.297165,384.044556 251.242493,384.060760 
	C285.893097,384.093903 320.543823,384.092896 355.194427,384.061432 
	C372.672760,384.045532 383.980988,372.786316 384.001434,355.350922 
	C384.041138,321.533264 384.035278,287.715485 384.004150,253.897842 
	C383.987671,235.987610 372.991272,224.884323 355.081207,224.847916 
	C320.597290,224.777832 286.113068,224.790329 251.629105,224.844360 
	C234.004318,224.871979 222.939133,235.940155 222.895355,253.531403 
	C222.838989,276.187469 222.880142,298.843750 222.879288,322.499939 
M287.166870,160.661774 
	C290.200806,161.082336 291.136169,159.818863 291.133820,156.744858 
	C291.123047,142.667465 279.680420,130.215500 265.312653,130.104355 
	C228.818817,129.821991 192.320160,129.839355 155.825928,130.093887 
	C142.074081,130.189789 130.220612,141.721008 130.116653,155.185394 
	C129.837463,191.345993 129.770874,227.512695 130.136246,263.671753 
	C130.299149,279.793304 147.173401,292.081879 162.916473,288.127075 
	C162.916473,286.403076 162.916458,284.592194 162.916473,282.781311 
	C162.916550,257.617218 163.631317,232.427216 162.720734,207.296112 
	C161.762787,180.857849 182.472656,159.610062 209.744446,160.489014 
	C235.215363,161.309937 260.733582,160.663895 287.166870,160.661774 
M181.614716,321.666077 
	C187.034988,331.183563 195.816833,334.330505 206.583267,335.198975 
	C206.583267,332.628632 206.583191,330.652618 206.583282,328.676575 
	C206.584427,303.861755 206.504974,279.046600 206.608383,254.232208 
	C206.722046,226.955200 224.886780,208.906372 252.103378,208.880051 
	C279.582855,208.853455 307.062408,208.873947 334.541901,208.873795 
	C336.284668,208.873779 338.027435,208.873795 339.699219,208.873795 
	C341.140411,189.669647 329.848938,176.974503 311.688019,176.915283 
	C276.714508,176.801270 241.739944,176.786926 206.766617,176.929001 
	C190.072464,176.996826 178.906784,188.319809 178.873230,204.934082 
	C178.803604,239.408234 178.771271,273.883026 178.957794,308.356323 
	C178.980621,312.574646 180.437912,316.785187 181.614716,321.666077 
z"/>
<path fill="#191919" opacity="1.000000" stroke="none" 
	d="
M222.879288,321.999939 
	C222.880142,298.843750 222.838989,276.187469 222.895355,253.531403 
	C222.939133,235.940155 234.004318,224.871979 251.629105,224.844360 
	C286.113068,224.790329 320.597290,224.777832 355.081207,224.847916 
	C372.991272,224.884323 383.987671,235.987610 384.004150,253.897842 
	C384.035278,287.715485 384.041138,321.533264 384.001434,355.350922 
	C383.980988,372.786316 372.672760,384.045532 355.194427,384.061432 
	C320.543823,384.092896 285.893097,384.093903 251.242493,384.060760 
	C234.297165,384.044556 223.011566,372.859467 222.897598,355.984344 
	C222.822220,344.823334 222.880722,333.661438 222.879288,321.999939 
z"/>
<path fill="#191A1A" opacity="1.000000" stroke="none" 
	d="
M286.698914,160.662659 
	C260.733582,160.663895 235.215363,161.309937 209.744446,160.489014 
	C182.472656,159.610062 161.762787,180.857849 162.720734,207.296112 
	C163.631317,232.427216 162.916550,257.617218 162.916473,282.781311 
	C162.916458,284.592194 162.916473,286.403076 162.916473,288.127075 
	C147.173401,292.081879 130.299149,279.793304 130.136246,263.671753 
	C129.770874,227.512695 129.837463,191.345993 130.116653,155.185394 
	C130.220612,141.721008 142.074081,130.189789 155.825928,130.093887 
	C192.320160,129.839355 228.818817,129.821991 265.312653,130.104355 
	C279.680420,130.215500 291.123047,142.667465 291.133820,156.744858 
	C291.136169,159.818863 290.200806,161.082336 286.698914,160.662659 
z"/>
<path fill="#191A1B" opacity="1.000000" stroke="none" 
	d="
M181.422577,321.332703 
	C180.437912,316.785187 178.980621,312.574646 178.957794,308.356323 
	C178.771271,273.883026 178.803604,239.408234 178.873230,204.934082 
	C178.906784,188.319809 190.072464,176.996826 206.766617,176.929001 
	C241.739944,176.786926 276.714508,176.801270 311.688019,176.915283 
	C329.848938,176.974503 341.140411,189.669647 339.699219,208.873795 
	C338.027435,208.873795 336.284668,208.873779 334.541901,208.873795 
	C307.062408,208.873947 279.582855,208.853455 252.103378,208.880051 
	C224.886780,208.906372 206.722046,226.955200 206.608383,254.232208 
	C206.504974,279.046600 206.584427,303.861755 206.583282,328.676575 
	C206.583191,330.652618 206.583267,332.628632 206.583267,335.198975 
	C195.816833,334.330505 187.034988,331.183563 181.422577,321.332703 
z"/>
</svg>